<svg xmlns="http://www.w3.org/2000/svg" width="100%" height="100%" style="background:#ffffff"><defs><pattern id="icon-pattern" patternUnits="userSpaceOnUse" width="128" height="128"><g transform="translate(0, 0)"><svg xmlns="http://www.w3.org/2000/svg" width="48" height="48" viewBox="0 0 24 24" fill="none" stroke="#000000" stroke-width="2" stroke-linecap="round" stroke-linejoin="round" class="lucide lucide-code" opacity="0.2"><polyline points="16 18 22 12 16 6"/><polyline points="8 6 2 12 8 18"/></svg></g><g transform="translate(64, 0)"><svg xmlns="http://www.w3.org/2000/svg" width="48" height="48" viewBox="0 0 24 24" fill="none" stroke="#000000" stroke-width="2" stroke-linecap="round" stroke-linejoin="round" class="lucide lucide-code-xml" opacity="0.2"><path d="m18 16 4-4-4-4"/><path d="m6 8-4 4 4 4"/><path d="m14.5 4-5 16"/></svg></g><g transform="translate(0, 64)"><svg xmlns="http://www.w3.org/2000/svg" width="48" height="48" viewBox="0 0 24 24" fill="none" stroke="#000000" stroke-width="2" stroke-linecap="round" stroke-linejoin="round" class="lucide lucide-code-xml" opacity="0.2"><path d="m18 16 4-4-4-4"/><path d="m6 8-4 4 4 4"/><path d="m14.5 4-5 16"/></svg></g><g transform="translate(64, 64)"><svg xmlns="http://www.w3.org/2000/svg" width="48" height="48" viewBox="0 0 24 24" fill="none" stroke="#000000" stroke-width="2" stroke-linecap="round" stroke-linejoin="round" class="lucide lucide-code" opacity="0.2"><polyline points="16 18 22 12 16 6"/><polyline points="8 6 2 12 8 18"/></svg></g></pattern></defs><rect width="100%" height="100%" fill="url(#icon-pattern)"/></svg>