<!--?xml version="1.0" standalone="no"?-->
              <svg id="sw-js-blob-svg" viewBox="0 0 100 100" xmlns="http://www.w3.org/2000/svg" version="1.1">
                    <defs> 
                        <linearGradient id="sw-gradient" x1="0" x2="1" y1="1" y2="0">
                            <stop id="stop1" stop-color="rgba(6, 182, 212, 1)" offset="0%"></stop>
                            <stop id="stop2" stop-color="rgba(34, 197, 94, 1)" offset="100%"></stop>
                        </linearGradient>
                    </defs>
                <path fill="none" d="M13.8,-25.4C19.3,-20.8,26,-19.8,31.7,-16.2C37.5,-12.6,42.1,-6.3,40.7,-0.9C39.2,4.6,31.5,9.2,25.9,13C20.4,16.8,16.8,19.9,12.8,24.1C8.8,28.3,4.4,33.6,-0.7,34.9C-5.8,36.1,-11.7,33.2,-14.7,28.5C-17.7,23.7,-17.8,17,-20.1,12C-22.4,6.9,-26.9,3.5,-28.9,-1.1C-30.8,-5.8,-30.4,-11.5,-28.4,-17.1C-26.4,-22.6,-22.8,-28,-17.8,-32.9C-12.8,-37.8,-6.4,-42.2,-1.1,-40.3C4.2,-38.3,8.3,-30,13.8,-25.4Z" width="100%" height="100%" transform="translate(50 50)" stroke-width="1" style="transition: all 0.3s ease 0s;" stroke="url(#sw-gradient)"></path>
              </svg>