<svg width="781" height="100" viewBox="0 0 781 100" fill="none" xmlns="http://www.w3.org/2000/svg">
<path d="M0 48.1477C0 41.0828 10.0826 39.8263 11.8165 46.6752L19.1311 75.568C19.6672 77.6855 21.3116 79.3443 23.4243 79.8989L55.0347 88.1966C61.8381 89.9825 60.5452 100 53.5113 100H6C2.68629 100 0 97.3137 0 94V48.1477Z" fill="black"/>
<path d="M729.148 100C722.083 100 720.826 89.9174 727.675 88.1835L756.568 80.8689C758.685 80.3328 760.344 78.6884 760.899 76.5757L769.197 44.9653C770.982 38.1619 781 39.4548 781 46.4887L781 94C781 97.3137 778.314 100 775 100L729.148 100Z" fill="black"/>
</svg>
