<svg width="781" height="100" viewBox="0 0 781 100" fill="none" xmlns="http://www.w3.org/2000/svg">
<path d="M781 51.8523C781 58.9172 770.917 60.1737 769.184 53.3248L761.869 24.432C761.333 22.3145 759.688 20.6557 757.576 20.1011L725.965 11.8034C719.162 10.0175 720.455 -5.29303e-06 727.489 -4.67811e-06L775 -5.24537e-07C778.314 -2.34843e-07 781 2.68629 781 6L781 51.8523Z" fill="black"/>
<path d="M51.8523 1.31542e-05C58.9172 1.3463e-05 60.1737 10.0826 53.3248 11.8165L24.432 19.1312C22.3145 19.6672 20.6557 21.3116 20.1011 23.4243L11.8034 55.0348C10.0175 61.8381 -2.64651e-06 60.5452 -2.33905e-06 53.5113L-2.62268e-07 6.00001C-1.17422e-07 2.6863 2.68629 1.10051e-05 6 1.11499e-05L51.8523 1.31542e-05Z" fill="black"/>
</svg>
